<svg xmlns="http://www.w3.org/2000/svg" viewBox="0 0 120 120" fill="none">
  <path d="M26 46 L60 24 L94 46 Z" fill="#3b82f6" stroke="#34616f" stroke-width="3.5" stroke-linejoin="round"/>
  <path d="M60 24 V13" stroke="#34616f" stroke-width="2.5" stroke-linecap="round"/>
  <path d="M60 13 h9 l-3 3 3 3 H60 Z" fill="#3b82f6" stroke="#34616f" stroke-width="1.8" stroke-linejoin="round"/>
  <rect x="30" y="46" width="60" height="44" rx="3" fill="#eaf6fb" stroke="#34616f" stroke-width="3.5"/>
  <rect x="36" y="55" width="12" height="12" rx="2" fill="#bfe3ee" stroke="#34616f" stroke-width="2.5"/>
  <rect x="72" y="55" width="12" height="12" rx="2" fill="#bfe3ee" stroke="#34616f" stroke-width="2.5"/>
  <path d="M52 90 V72 a8 8 0 0 1 16 0 V90 Z" fill="#bfe3ee" stroke="#34616f" stroke-width="3" stroke-linejoin="round"/>
  <path d="M18 90 H102" stroke="#34616f" stroke-width="3.5" stroke-linecap="round"/>
  <circle cx="24" cy="106" r="3.4" fill="#ffffff" stroke="#34616f" stroke-width="1.8"/><circle cx="36" cy="106" r="3.4" fill="#ffffff" stroke="#34616f" stroke-width="1.8"/><circle cx="48" cy="106" r="3.4" fill="#ffffff" stroke="#34616f" stroke-width="1.8"/><circle cx="60" cy="106" r="3.4" fill="#ffffff" stroke="#34616f" stroke-width="1.8"/><circle cx="72" cy="106" r="5.5" fill="#3b82f6" stroke="#34616f" stroke-width="2"/><circle cx="84" cy="106" r="3.4" fill="#ffffff" stroke="#34616f" stroke-width="1.8"/><circle cx="96" cy="106" r="3.4" fill="#ffffff" stroke="#34616f" stroke-width="1.8"/>
</svg>
