<svg xmlns="http://www.w3.org/2000/svg" viewBox="0 0 120 120" fill="none">
  <circle cx="42" cy="34" r="14" fill="#f4c79a" stroke="#34616f" stroke-width="3.5"/>
  <path d="M29 31 a13 13 0 0 1 26 0 q-13 -9 -26 0 Z" fill="#6b4f3a" stroke="#34616f" stroke-width="2.5" stroke-linejoin="round"/>
  <circle cx="38" cy="36" r="2" fill="#34616f"/><circle cx="47" cy="36" r="2" fill="#34616f"/>
  <path d="M38 41 q4 3 8 0" fill="none" stroke="#34616f" stroke-width="2.2" stroke-linecap="round"/>
  <path d="M42 48 V68" stroke="#8b5cf6" stroke-width="8" stroke-linecap="round"/>
  <path d="M42 68 L32 82" stroke="#34616f" stroke-width="6" stroke-linecap="round"/>
  <path d="M42 64 L58 76" stroke="#34616f" stroke-width="6" stroke-linecap="round"/>
  <path d="M30 54 L20 62" stroke="#8b5cf6" stroke-width="6" stroke-linecap="round"/>
  <circle cx="74" cy="82" r="11" fill="#ffffff" stroke="#34616f" stroke-width="3"/>
  <path d="M74 75 l5.5 4 -2 6.5 h-7 l-2 -6.5 Z" fill="#34616f"/>
  <path d="M14 90 H106" stroke="#34616f" stroke-width="3.5" stroke-linecap="round"/>
  <circle cx="24" cy="106" r="3.4" fill="#ffffff" stroke="#34616f" stroke-width="1.8"/><circle cx="36" cy="106" r="3.4" fill="#ffffff" stroke="#34616f" stroke-width="1.8"/><circle cx="48" cy="106" r="3.4" fill="#ffffff" stroke="#34616f" stroke-width="1.8"/><circle cx="60" cy="106" r="3.4" fill="#ffffff" stroke="#34616f" stroke-width="1.8"/><circle cx="72" cy="106" r="3.4" fill="#ffffff" stroke="#34616f" stroke-width="1.8"/><circle cx="84" cy="106" r="5.5" fill="#8b5cf6" stroke="#34616f" stroke-width="2"/><circle cx="96" cy="106" r="3.4" fill="#ffffff" stroke="#34616f" stroke-width="1.8"/>
</svg>
