<svg xmlns="http://www.w3.org/2000/svg" viewBox="0 0 120 120" fill="none">
  <path d="M30 90 V70" stroke="#7a5230" stroke-width="7" stroke-linecap="round"/>
  <circle cx="30" cy="56" r="17" fill="#5fb3a8" stroke="#34616f" stroke-width="3.5"/>
  <circle cx="72" cy="44" r="14" fill="#f4c79a" stroke="#34616f" stroke-width="3.5"/>
  <path d="M59 41 a13 13 0 0 1 26 0 q-13 -9 -26 0 Z" fill="#6b4f3a" stroke="#34616f" stroke-width="2.5" stroke-linejoin="round"/>
  <circle cx="68" cy="46" r="2" fill="#34616f"/><circle cx="77" cy="46" r="2" fill="#34616f"/>
  <path d="M68 51 q4 3 8 0" fill="none" stroke="#34616f" stroke-width="2.2" stroke-linecap="round"/>
  <path d="M72 58 V80" stroke="#ec4899" stroke-width="8" stroke-linecap="round"/>
  <path d="M72 80 L64 90 M72 80 L80 90" stroke="#34616f" stroke-width="6" stroke-linecap="round"/>
  <path d="M72 64 L60 70 M72 64 L84 70" stroke="#ec4899" stroke-width="6" stroke-linecap="round"/>
  <path d="M14 90 H106" stroke="#34616f" stroke-width="3.5" stroke-linecap="round"/>
  <circle cx="24" cy="106" r="3.4" fill="#ffffff" stroke="#34616f" stroke-width="1.8"/><circle cx="36" cy="106" r="3.4" fill="#ffffff" stroke="#34616f" stroke-width="1.8"/><circle cx="48" cy="106" r="3.4" fill="#ffffff" stroke="#34616f" stroke-width="1.8"/><circle cx="60" cy="106" r="3.4" fill="#ffffff" stroke="#34616f" stroke-width="1.8"/><circle cx="72" cy="106" r="3.4" fill="#ffffff" stroke="#34616f" stroke-width="1.8"/><circle cx="84" cy="106" r="3.4" fill="#ffffff" stroke="#34616f" stroke-width="1.8"/><circle cx="96" cy="106" r="5.5" fill="#ec4899" stroke="#34616f" stroke-width="2"/>
</svg>
