
    <svg xmlns="http://www.w3.org/2000/svg" viewBox="0 0 1280 720" role="img" aria-label="inventor_hall marketplace render">
      
    <defs>
      <linearGradient id="glass" x1="0" x2="1" y1="0" y2="1">
        <stop offset="0" stop-color="#f8fafc" stop-opacity="0.95"/>
        <stop offset="0.52" stop-color="#facc15" stop-opacity="0.42"/>
        <stop offset="1" stop-color="#0f172a" stop-opacity="0.18"/>
      </linearGradient>
      <linearGradient id="gold" x1="0" x2="1" y1="0" y2="1">
        <stop offset="0" stop-color="#fff7ad"/>
        <stop offset="0.48" stop-color="#facc15"/>
        <stop offset="1" stop-color="#a16207"/>
      </linearGradient>
      <linearGradient id="stone" x1="0" x2="1" y1="0" y2="1">
        <stop offset="0" stop-color="#f8fafc"/>
        <stop offset="0.5" stop-color="#cbd5e1"/>
        <stop offset="1" stop-color="#64748b"/>
      </linearGradient>
      <linearGradient id="wood" x1="0" x2="1" y1="0" y2="1">
        <stop offset="0" stop-color="#f59e0b"/>
        <stop offset="0.5" stop-color="#a16207"/>
        <stop offset="1" stop-color="#451a03"/>
      </linearGradient>
      <radialGradient id="water" cx="50%" cy="38%" r="64%">
        <stop offset="0" stop-color="#ecfeff"/>
        <stop offset="0.46" stop-color="#facc15"/>
        <stop offset="1" stop-color="#0369a1"/>
      </radialGradient>
      <filter id="shadow" x="-40%" y="-40%" width="180%" height="180%">
        <feDropShadow dx="0" dy="24" stdDeviation="18" flood-color="#052e16" flood-opacity="0.34"/>
      </filter>
      <filter id="lift" x="-25%" y="-30%" width="150%" height="170%">
        <feDropShadow dx="0" dy="16" stdDeviation="10" flood-color="#020617" flood-opacity="0.32"/>
      </filter>
      <filter id="glow" x="-70%" y="-70%" width="240%" height="240%">
        <feGaussianBlur stdDeviation="10" result="blur"/>
        <feMerge><feMergeNode in="blur"/><feMergeNode in="SourceGraphic"/></feMerge>
      </filter>
    </defs>
      
    <rect width="1280" height="720" fill="#ffffff" opacity="0.02"/>
    
    <ellipse cx="640" cy="584" rx="500" ry="104" fill="#022c22" opacity="0.28"/>
    <path d="M0 668 C214 604 392 642 598 604 C808 566 1004 622 1280 548 L1280 720 L0 720 Z" fill="#facc15" opacity="0.15"/>
      
    <ellipse cx="640" cy="626" rx="456" ry="96" fill="#022c22" opacity="0.36" filter="url(#shadow)"/>
    <ellipse cx="640" cy="590" rx="456" ry="92" fill="#facc15" opacity="0.34"/>
    <ellipse cx="640" cy="560" rx="428" ry="72" fill="#f8fafc" opacity="0.2"/>
    <path d="M226 552 C492 504 788 502 1054 552" fill="none" stroke="#ffffff" stroke-width="10" opacity="0.32" stroke-linecap="round"/><g filter="url(#lift)"><rect x="342" y="350" width="596" height="260" rx="24" fill="#fef3c7"/><path d="M316 360 L640 228 L964 360 Z" fill="url(#gold)"/><rect x="574" y="446" width="132" height="164" rx="66" fill="#92400e"/><circle cx="640" cy="348" r="38" fill="#facc15" filter="url(#glow)"/><circle cx="478" cy="516" r="36" fill="none" stroke="#ca8a04" stroke-width="13"/><circle cx="806" cy="516" r="36" fill="none" stroke="#ca8a04" stroke-width="13"/></g>
      <rect x="38" y="38" width="1204" height="644" rx="52" fill="none" stroke="#ffffff" stroke-opacity="0.26" stroke-width="3"/>
    </svg>