<svg xmlns="http://www.w3.org/2000/svg" viewBox="0 0 320 240" role="img"><title>Outback Railway Station</title><rect width="320" height="240" fill="#e1e7d6"/><ellipse cx="160" cy="199" rx="133" ry="22" fill="#c3ceb7"/><path d="M105 99h100v72h-100z" fill="#a9b8a1"/><path d="M97 99l58 -38 58 38z" fill="#536c64"/><path d="M145 129h23v42h-23z" fill="#e0d5b9"/><path d="M40 195h245M40 213h245M50 187v35m24 -35v35m24 -35v35m24 -35v35m24 -35v35m24 -35v35m24 -35v35m24 -35v35m24 -35v35m24 -35v35" stroke="#6a756b" stroke-width="4"/><circle cx="155" cy="110" r="13" fill="#eee5cb"/><path d="M155 100v10h8" stroke="#526459" fill="none"/></svg>