<svg xmlns="http://www.w3.org/2000/svg" viewBox="0 0 120 120" fill="none">
  <circle cx="60" cy="40" r="20" fill="#f4c79a" stroke="#34616f" stroke-width="3.5"/>
  <path d="M41 36 a19 19 0 0 1 38 0 q-19 -12 -38 0 Z" fill="#6b4f3a" stroke="#34616f" stroke-width="3" stroke-linejoin="round"/>
  <circle cx="53" cy="43" r="2.4" fill="#34616f"/><circle cx="67" cy="43" r="2.4" fill="#34616f"/>
  <path d="M54 50 q6 4 12 0" fill="none" stroke="#34616f" stroke-width="2.5" stroke-linecap="round"/>
  <path d="M60 70 C50 64 34 64 24 68 V100 C34 96 50 96 60 102 C70 96 86 96 96 100 V68 C86 64 70 64 60 70 Z" fill="#eaf6fb" stroke="#34616f" stroke-width="3.5" stroke-linejoin="round"/>
  <path d="M60 70 V102" stroke="#34616f" stroke-width="3"/>
  <path d="M30 78 H50 M30 86 H50 M70 78 H90 M70 86 H90" stroke="#34616f" stroke-width="2.2" opacity="0.5" stroke-linecap="round"/>
</svg>
