<svg xmlns="http://www.w3.org/2000/svg" viewBox="0 0 120 120" fill="none">
  <circle cx="60" cy="32" r="18" fill="#f4c79a" stroke="#34616f" stroke-width="3.5"/>
  <path d="M42 29 a18 18 0 0 1 36 0 q-18 -12 -36 0 Z" fill="#6b4f3a" stroke="#34616f" stroke-width="2.5" stroke-linejoin="round"/>
  <circle cx="54" cy="36" r="2.2" fill="#34616f"/><circle cx="66" cy="36" r="2.2" fill="#34616f"/>
  <path d="M49 48 Q41 68 47 82" fill="none" stroke="#5fb3c4" stroke-width="7" stroke-linecap="round"/>
  <path d="M71 48 Q79 68 73 82" fill="none" stroke="#5fb3c4" stroke-width="7" stroke-linecap="round"/>
  <path d="M28 98 L32 84 q2 -5 8 -3 l4 10 16 4 q15 3 23 9 q3 2 3 6 a3 3 0 0 1 -3 3 H31 a3 3 0 0 1 -3 -3 Z" fill="#bfe3ee" stroke="#34616f" stroke-width="3.5" stroke-linejoin="round"/>
  <path d="M46 88 l8 3 M50 84 l8 4" stroke="#34616f" stroke-width="2.2" stroke-linecap="round"/>
  <path d="M28 106 H88" stroke="#34616f" stroke-width="3.5" stroke-linecap="round"/>
</svg>
