<svg xmlns="http://www.w3.org/2000/svg" viewBox="0 0 120 120" fill="none">
  <rect x="10" y="74" width="100" height="22" rx="6" fill="#bfe3ee" stroke="#34616f" stroke-width="3.5"/>
  <path d="M48 74 H106 a4 4 0 0 1 4 4 v14 a4 4 0 0 1 -4 4 H48 Z" fill="#5fb3c4" stroke="#34616f" stroke-width="3.5" stroke-linejoin="round"/>
  <rect x="16" y="64" width="32" height="16" rx="6" fill="#eaf6fb" stroke="#34616f" stroke-width="3"/>
  <circle cx="40" cy="60" r="15" fill="#f4c79a" stroke="#34616f" stroke-width="3.5"/>
  <path d="M26 56 a15 15 0 0 1 28 -3 q-14 -7 -28 3 Z" fill="#6b4f3a" stroke="#34616f" stroke-width="2.5" stroke-linejoin="round"/>
  <path d="M43 60 q4 3 8 0" fill="none" stroke="#34616f" stroke-width="2.5" stroke-linecap="round"/>
  <path d="M72 42 h11 l-11 11 h11" stroke="#34616f" stroke-width="2.6" fill="none" stroke-linejoin="round"/>
  <path d="M88 30 h8 l-8 8 h8" stroke="#34616f" stroke-width="2.2" fill="none" stroke-linejoin="round"/>
</svg>
