<svg xmlns="http://www.w3.org/2000/svg" viewBox="0 0 120 120" fill="none">
  <rect width="120" height="120" rx="16" fill="#fff3df"/>
  <rect x="80" y="12" width="30" height="30" rx="3" fill="#cfe7f2" stroke="#34616f" stroke-width="3"/>
  <path d="M85 38 a10 10 0 0 1 20 0 Z" fill="#f6a13c" stroke="#34616f" stroke-width="2" stroke-linejoin="round"/>
  <circle cx="42" cy="46" r="16" fill="#f4c79a" stroke="#34616f" stroke-width="3.5"/>
  <path d="M27 43 a15 15 0 0 1 30 0 q-15 -10 -30 0 Z" fill="#6b4f3a" stroke="#34616f" stroke-width="2.5" stroke-linejoin="round"/>
  <circle cx="38" cy="48" r="2" fill="#34616f"/><circle cx="47" cy="48" r="2" fill="#34616f"/>
  <path d="M38 53 q4 3 8 0" fill="none" stroke="#34616f" stroke-width="2.2" stroke-linecap="round"/>
  <ellipse cx="58" cy="92" rx="24" ry="10" fill="#eaf6fb" stroke="#34616f" stroke-width="3"/>
  <path d="M40 88 q18 -8 36 0" fill="#f6c84c" stroke="#34616f" stroke-width="2"/>
  <path d="M70 70 L80 86" stroke="#34616f" stroke-width="2.5" stroke-linecap="round"/>
  <path d="M50 78 q2 -6 -2 -10 M58 78 q2 -6 -2 -10" stroke="#bcd3dd" stroke-width="2.5" stroke-linecap="round"/>
</svg>
