<svg xmlns="http://www.w3.org/2000/svg" viewBox="0 0 120 120" fill="none">
  <rect width="120" height="120" rx="16" fill="#26315c"/>
  <rect x="80" y="12" width="30" height="30" rx="3" fill="#1d2750" stroke="#7d8bbf" stroke-width="2.5"/>
  <circle cx="92" cy="26" r="8" fill="#f5e9b8"/><circle cx="96" cy="23" r="7" fill="#1d2750"/>
  <g fill="#ffffff"><circle cx="100" cy="36" r="1.4"/><circle cx="84" cy="34" r="1.2"/></g>
  <rect x="10" y="76" width="100" height="22" rx="6" fill="#3a4673" stroke="#0f1430" stroke-width="3"/>
  <path d="M48 76 H106 a4 4 0 0 1 4 4 v14 a4 4 0 0 1 -4 4 H48 Z" fill="#5fb3c4" stroke="#0f1430" stroke-width="3" stroke-linejoin="round"/>
  <rect x="16" y="66" width="30" height="16" rx="6" fill="#eaf6fb" stroke="#0f1430" stroke-width="2.5"/>
  <circle cx="40" cy="62" r="13" fill="#f4c79a" stroke="#0f1430" stroke-width="3"/>
  <path d="M28 59 a13 13 0 0 1 24 -2 q-12 -7 -24 2 Z" fill="#6b4f3a" stroke="#0f1430" stroke-width="2.2" stroke-linejoin="round"/>
  <path d="M43 60 q4 3 8 0" fill="none" stroke="#0f1430" stroke-width="2.2" stroke-linecap="round"/>
  <path d="M60 52 h9 l-9 9 h9" stroke="#dfe6ff" stroke-width="2.4" fill="none" stroke-linejoin="round"/>
  <path d="M72 42 h6 l-6 6 h6" stroke="#dfe6ff" stroke-width="2" fill="none" stroke-linejoin="round"/>
</svg>
