<svg xmlns="http://www.w3.org/2000/svg" viewBox="0 0 120 120" fill="none">
  <rect width="120" height="120" rx="16" fill="#fff6e0"/>
  <g stroke="#f6b93b" stroke-width="3" stroke-linecap="round" opacity="0.8">
    <path d="M60 16 V8"/><path d="M96 30 l6 -5"/><path d="M24 30 l-6 -5"/><path d="M100 60 h8"/><path d="M12 60 h8"/>
  </g>
  <rect x="40" y="16" width="5" height="12" rx="2" fill="#34616f"/>
  <rect x="75" y="16" width="5" height="12" rx="2" fill="#34616f"/>
  <rect x="26" y="24" width="68" height="72" rx="8" fill="#ffffff" stroke="#34616f" stroke-width="3.5"/>
  <path d="M26 32 a8 8 0 0 1 8 -8 H86 a8 8 0 0 1 8 8 V42 H26 Z" fill="#f6b93b" stroke="#34616f" stroke-width="3.5" stroke-linejoin="round"/>
  <path d="M60 52 l6 13 14 1 -10.5 9.5 3 14 -12.5 -7.5 -12.5 7.5 3 -14 -10.5 -9.5 14 -1 Z" fill="#f6b93b" stroke="#34616f" stroke-width="3" stroke-linejoin="round"/>
</svg>
